<?xml version="1.0" encoding="UTF-8"?>
<svg width="700pt" height="700pt" version="1.1" viewBox="0 0 700 700" xmlns="http://www.w3.org/2000/svg">
 <path d="m483.16 179.83-100.17 100.17 100.17 100.17c4.5 4.3477 7.0664 10.32 7.1211 16.578 0.054688 6.2578-2.4062 12.277-6.832 16.703s-10.445 6.8867-16.703 6.832c-6.2578-0.054687-12.23-2.6211-16.578-7.1211l-100.17-100.17-100.17 100.17c-5.9258 5.7227-14.43 7.8984-22.379 5.7188-7.9453-2.1797-14.152-8.3867-16.332-16.332-2.1797-7.9492-0.003907-16.453 5.7188-22.379l100.17-100.17-100.17-100.17c-5.7227-5.9258-7.8984-14.43-5.7188-22.379 2.1797-7.9453 8.3867-14.152 16.332-16.332 7.9492-2.1797 16.453-0.003907 22.379 5.7188l100.17 100.17 100.17-100.17c4.3477-4.5 10.32-7.0664 16.578-7.1211 6.2578-0.054688 12.277 2.4062 16.703 6.832s6.8867 10.445 6.832 16.703c-0.054687 6.2578-2.6211 12.23-7.1211 16.578z"/>
</svg>
